# xmcd
#
# Track frame offsets: 
#        150
#        12675
#        26375
#        39800
#        53430
#        64083
#        77700
#        92755
#        102750
#        114280
#        127250
#
# Disc length: 1863 seconds
#
# Revision: 0
# Processed by: cddbd v1.5.2PL0 Copyright (c) Steve Scherf et al.
# Submitted via: ExactAudioCopy v0.99pb5
#
DISCID=8007450b
DTITLE=Salvatore Adamo - Les Titres d'Or d'Adamo
DYEAR=1968
DGENRE=Chanson
TTITLE0=Sans Toi M'amie
TTITLE1=Tombe La Neige
TTITLE2=Amour Perdu
TTITLE3=En Blue Jeans Et Blouson D'cuir
TTITLE4=N'est-ce Pas Merveilleux?
TTITLE5=Vous Permettez Monsieur?
TTITLE6=La Nuit
TTITLE7=A Vot' Bon Coeur
TTITLE8=Quand Les Roses
TTITLE9=Les Felles Du Bord De Mer
TTITLE10=Si Jamais
EXTD=
EXTT0=
EXTT1=
EXTT2=
EXTT3=
EXTT4=
EXTT5=
EXTT6=
EXTT7=
EXTT8=
EXTT9=
EXTT10=
PLAYORDER=
